<?xml version="1.0" standalone="no"?>
<!DOCTYPE svg PUBLIC "-//W3C//DTD SVG 20010904//EN"
 "http://www.w3.org/TR/2001/REC-SVG-20010904/DTD/svg10.dtd">
<svg version="1.0" xmlns="http://www.w3.org/2000/svg"
 width="283.000000pt" height="283.000000pt" viewBox="0 0 283.000000 283.000000"
 preserveAspectRatio="xMidYMid meet">
<metadata>
Created by potrace 1.11, written by Peter Selinger 2001-2013
</metadata>
<g transform="translate(0.000000,283.000000) scale(0.100000,-0.100000)"
fill="#000000" stroke="none">
<path d="M60 1613 l0 -1208 324 -192 c178 -106 331 -195 339 -199 13 -5 15 84
15 743 1 891 0 871 10 858 10 -15 651 -395 665 -395 7 0 26 8 42 18 17 10 50
30 75 44 81 46 534 318 547 330 14 11 14 -51 13 -1200 0 -221 3 -402 6 -402 8
0 604 353 647 382 l27 19 0 1205 c0 662 -3 1204 -7 1204 -3 0 -65 -35 -137
-78 -72 -44 -266 -159 -431 -257 -165 -97 -316 -188 -335 -200 -19 -12 -64
-40 -100 -60 -36 -21 -78 -46 -95 -55 -16 -10 -79 -47 -139 -84 -60 -36 -110
-66 -111 -66 -2 0 -122 71 -266 158 -145 87 -306 182 -357 212 -51 30 -100 60
-110 65 -9 6 -151 90 -314 188 -163 97 -299 177 -302 177 -3 0 -6 -543 -6
-1207z"/>
</g>
</svg>
