<svg xmlns="http://www.w3.org/2000/svg" data-name="Layer 1" viewBox="0 0 68 85" x="0px" y="0px"><path fill="#fec501" d="M65.08,15.57H48.75V9.7a3.1,3.1,0,0,0-3.1-3.11H43a3.36,3.36,0,0,0-3.19-2.33H28.18A3.36,3.36,0,0,0,25,6.59H22.34a3.1,3.1,0,0,0-3.1,3.11v5.87H2.92a1,1,0,0,0-1,1V33.92c4.46,4.16,13.85,7.1,25.39,7.94V39h0a2.08,2.08,0,0,1,2.07-2.08h9.32A2.08,2.08,0,0,1,40.73,39h0v2.88c11.54-.84,20.93-3.78,25.39-7.94V16.61A1,1,0,0,0,65.08,15.57ZM21.31,9.7a1,1,0,0,1,1-1H25A3.36,3.36,0,0,0,28.18,11H39.81A3.36,3.36,0,0,0,43,8.66h2.65a1,1,0,0,1,1,1v5.87H21.31Z"/><path fill="#fec501" d="M40.73,47.27a2.07,2.07,0,0,1-2.07,2.07H29.34a2.07,2.07,0,0,1-2.07-2.07V43.93c-9.79-.7-17.95-2.8-23.32-6V62.7a1,1,0,0,0,1,1H63a1,1,0,0,0,1-1V38c-5.37,3.16-13.53,5.26-23.32,6Z"/><path fill="#fec501" d="M38.66,44.07V39H29.34v8.29h9.32ZM35,44.16H33V42.09H35Z"/></svg>