<svg xmlns="http://www.w3.org/2000/svg" xmlns:xlink="http://www.w3.org/1999/xlink" version="1.1" x="0px" y="0px" viewBox="0 0 100 125" style="enable-background:new 0 0 100 100;" xml:space="preserve"><path fill="#fec501" d="M53.9,17.2h-7.9c-1,0-1.9,0.8-1.9,1.9c0,1,0.8,1.9,1.9,1.9h2.4v4.6h3V21h2.4c1,0,1.9-0.8,1.9-1.9  C55.8,18.1,55,17.2,53.9,17.2z"/><g><path fill="#fec501" d="M91.8,44.4c-0.5,0-1.1-0.3-1.4-0.8c-3.3-5.8-7.7-10.9-12.8-14.9c-0.7-0.5-0.8-1.5-0.3-2.2   c0.5-0.7,1.5-0.8,2.2-0.3C85,30.5,89.7,35.9,93.2,42c0.4,0.8,0.2,1.7-0.6,2.1C92.3,44.3,92.1,44.4,91.8,44.4z"/></g><g><path fill="#fec501" d="M7.7,44.4c-0.3,0-0.5-0.1-0.7-0.2c-0.8-0.4-1-1.4-0.6-2.1c3.4-6.2,8-11.8,13.5-16c0.7-0.5,1.7-0.4,2.2,0.3   c0.5,0.7,0.4,1.7-0.3,2.2c-5.1,4-9.5,9.2-12.7,15C8.8,44.1,8.3,44.4,7.7,44.4z"/></g><g><path fill="#fec501" d="M94.4,35.1c-0.5,0-1-0.2-1.3-0.7c-2.2-3-4.6-5.8-7.2-8.4c-0.6-0.6-0.6-1.6,0-2.2c0.6-0.6,1.6-0.6,2.2,0   c2.7,2.7,5.3,5.6,7.6,8.8c0.5,0.7,0.3,1.7-0.4,2.2C95.1,35,94.8,35.1,94.4,35.1z"/></g><g><path fill="#fec501" d="M4.8,34.9c-0.3,0-0.7-0.1-0.9-0.3C3.1,34,3,33,3.5,32.3c2.4-3.1,5.1-6,8-8.6c0.6-0.6,1.6-0.5,2.2,0.1   c0.6,0.6,0.5,1.6-0.1,2.2c-2.7,2.5-5.3,5.2-7.6,8.2C5.7,34.6,5.2,34.9,4.8,34.9z"/></g><path fill="#fec501" d="M90.2,63.2h-0.2c0-0.5,0-0.9-0.1-1.4C88.6,41.3,70.3,24,49.8,24.1C28.1,24.2,10.5,41.6,10,63.2H9.8c-0.9,0-1.6,0.7-1.6,1.6  s0.7,1.6,1.6,1.6h36.8V77h6.9V66.3h36.8c0.9,0,1.6-0.7,1.6-1.6S91.1,63.2,90.2,63.2z M80,57.2h-8.3c0-0.2,0-0.4,0-0.7  c-0.6-9.1-5.3-17.4-12.2-23c-0.5-0.4,0-1.2,0.5-1c10.2,4,18.2,13.2,20.6,24C80.6,56.9,80.3,57.2,80,57.2z"/><path fill="#fec501" d="M94,76.1h-1.8v-3.4c0-0.8-0.7-1.5-1.5-1.5H9.3c-0.8,0-1.5,0.7-1.5,1.5v3.4H6c-1.8,0-3.3,1.5-3.3,3.3v0  c0,1.8,1.5,3.3,3.3,3.3h88c1.8,0,3.3-1.5,3.3-3.3v0C97.3,77.6,95.9,76.1,94,76.1z"/></svg>