<svg xmlns="http://www.w3.org/2000/svg" xmlns:xlink="http://www.w3.org/1999/xlink" version="1.1" x="0px" y="0px" viewBox="0 0 100 125" enable-background="new 0 0 100 100" xml:space="preserve"><path fill="#fec501" fill-rule="evenodd" clip-rule="evenodd" d="M48.1523438,31.5v-3.4003906h-2.5996094  c-0.5332031,0-0.984375-0.1660156-1.3515625-0.5c-0.3652344-0.4003906-0.5488281-0.8652344-0.5488281-1.4003906  c0-0.5332031,0.1835938-0.9824219,0.5488281-1.3496094c0.3671875-0.3652344,0.8183594-0.5488281,1.3515625-0.5488281h9.1992188  c0.5332031,0,0.9824219,0.1835938,1.3496094,0.5488281c0.3671875,0.3671875,0.5507813,0.8164063,0.5507813,1.3496094  c0,0.5351563-0.1835938,1-0.5507813,1.4003906c-0.3671875,0.3339844-0.8164063,0.5-1.3496094,0.5h-2.75V31.5  c8.7324219,0.4667969,16.3007813,3.8828125,22.6992188,10.25c5.7011719,5.8007813,9.0507813,12.5664063,10.0507813,20.3007813  H14.9023438c0.6328125-5.4667969,2.4667969-10.4179688,5.5-14.8515625c1.265625-1.8652344,2.765625-3.6816406,4.5-5.4492188  c3.6328125-3.6328125,7.6660156-6.3007813,12.0996094-8C40.46875,32.3828125,44.1855469,31.6328125,48.1523438,31.5z   M38.0019531,41.9492188c0.0996094-0.5,0.0332031-0.9824219-0.1992188-1.4492188  c-0.2675781-0.5-0.6347656-0.8007813-1.1015625-0.9003906c-0.5-0.1660156-1-0.1328125-1.5,0.0996094  c-2.3652344,1.2675781-4.5664063,2.9511719-6.5996094,5.0507813c-1.0664063,1.0332031-2,2.0839844-2.7988281,3.1503906  c-0.3339844,0.4003906-0.4511719,0.8828125-0.3515625,1.4492188c0.0683594,0.5,0.3007813,0.9003906,0.7011719,1.2011719  c0.4335938,0.3320313,0.9160156,0.4667969,1.4492188,0.3984375c0.5-0.0996094,0.9179688-0.3496094,1.25-0.75  c0.7011719-0.9648438,1.5-1.8652344,2.4003906-2.6992188l0.0507813-0.0507813  c1.765625-1.8320313,3.6660156-3.2988281,5.6992188-4.3984375C37.5019531,42.7832031,37.8359375,42.4160156,38.0019531,41.9492188z   M10.0019531,66.9003906c0-0.2675781,0.0664063-0.484375,0.1992188-0.6503906  c0.1015625-0.1992188,0.25-0.3828125,0.4511719-0.5507813C10.984375,65.4003906,11.3847656,65.25,11.8515625,65.25h76.2495117  c0.5,0,0.9179688,0.1660156,1.25,0.5c0.3671875,0.3339844,0.5839844,0.734375,0.6503906,1.1992188  c0.0332031,0.4667969-0.0839844,0.9003906-0.3496094,1.3007813l-4.8491211,6.6992188  c-0.2011719,0.2011719-0.4511719,0.3847656-0.75,0.5507813c-0.2675781,0.1328125-0.5507813,0.1992188-0.8515625,0.1992188  H16.5019531c-0.3339844,0-0.6171875-0.0664063-0.8496094-0.1992188c-0.3007813-0.1660156-0.5332031-0.3671875-0.7011719-0.5996094  L10.3027344,68.25c-0.0332031-0.0664063-0.0683594-0.1171875-0.1015625-0.1503906  C10.0351563,67.6992188,9.96875,67.3007813,10.0019531,66.9003906z"/></svg>