<svg xmlns:dc="http://purl.org/dc/elements/1.1/" xmlns:cc="http://creativecommons.org/ns#" xmlns:rdf="http://www.w3.org/1999/02/22-rdf-syntax-ns#" xmlns:svg="http://www.w3.org/2000/svg" xmlns="http://www.w3.org/2000/svg" xmlns:sodipodi="http://sodipodi.sourceforge.net/DTD/sodipodi-0.dtd" xmlns:inkscape="http://www.inkscape.org/namespaces/inkscape" version="1.1" x="0px" y="0px" viewBox="0 0 100 125"><g transform="translate(0,-952.36218)"><path style="color:#fec501;enable-background:accumulate;" d="m 9.9999998,980.36217 0,11.00002 C 16.0751,991.36219 21,996.28719 21,1002.3622 c 0,6.0752 -4.9249,11 -11.0000002,11 l 0,11 53.0000002,0 0,-8 4,0 0,8 23,0 0,-11 c -6.0751,0 -11,-4.9248 -11,-11 0,-6.07501 4.9249,-11.00001 11,-11.00001 l 0,-11.00002 -23,0 0,8 -4,0 0,-8 -53.0000002,0 z m 32.0000002,8 3.75,9.31252 10.25,0.625 -7.9062,6.37501 2.5624,9.6875 -8.6562,-5.375 -8.6562,5.375 2.5624,-9.6875 -7.9062,-6.37501 10.25,-0.625 3.75,-9.31252 z m 21,4.00002 4,0 0,8.00001 -4,0 0,-8.00001 z m 0,12.00001 4,0 0,8 -4,0 0,-8 z" fill="#fec501" stroke="none" marker="none" visibility="visible" display="inline" overflow="visible"/></g></svg>