<svg xmlns="http://www.w3.org/2000/svg" xmlns:xlink="http://www.w3.org/1999/xlink" version="1.1" x="0px" y="0px" viewBox="0 0 100 125" enable-background="new 0 0 100 100" xml:space="preserve"><path fill="#fec501" d="M92.656,38.398c0.912-1.276,1.157-3.284,0.549-3.893c-0.61-0.607-6.753-0.67-8.155-0.486  c-1.398,0.182-1.504,3.163-1.504,3.163l-1.714,0.368c-1.945-3.709-4.354-10.219-6.578-13.022c-3.149-3.973-19.824-4.689-25.255-4.74  c-5.431,0.051-22.106,0.767-25.255,4.74c-2.223,2.803-4.634,9.313-6.579,13.022l-1.714-0.368c0,0-0.105-2.981-1.505-3.163  c-1.4-0.184-7.543-0.121-8.151,0.486c-0.61,0.608-0.364,2.617,0.547,3.893c0.913,1.279,7.299,1.642,7.848,1.521  c0.345-0.076,1.104-0.346,1.832-0.474c-0.305,0.401-0.591,0.675-0.854,0.778c-4.163,1.639-5.888,4.199-6.606,6.047  c-0.007,0.013-0.01,0.026-0.013,0.038c-0.152,0.394-0.262,0.752-0.333,1.063c-0.002,0.003-0.002,0.007-0.003,0.011  c-0.166,0.707-0.171,1.166-0.171,1.166C8.552,55.554,8.926,61.303,9.974,67.7c0.021,0.128,0.064,0.233,0.091,0.355v9.238  c0,1.606,1.314,2.919,2.92,2.919h6.936c1.604,0,2.92-1.313,2.92-2.919v-4.54c7.866,0.765,20.427,1.903,25.548,1.903  c0.481,0,1.019-0.004,1.611-0.012c0.592,0.008,1.129,0.012,1.611,0.012c5.121,0,17.682-1.138,25.548-1.903v4.54  c0,1.606,1.314,2.919,2.92,2.919h6.936c1.606,0,2.918-1.313,2.918-2.919v-9.225c0.028-0.126,0.072-0.236,0.094-0.369  c1.047-6.397,1.423-12.146,0.932-19.154c0,0-0.005-0.459-0.17-1.165c-0.002-0.005-0.002-0.008-0.003-0.012  c-0.074-0.311-0.183-0.668-0.333-1.062c-0.005-0.012-0.008-0.025-0.015-0.038c-0.719-1.847-2.443-4.407-6.606-6.047  c-0.263-0.104-0.55-0.378-0.855-0.778c0.727,0.128,1.486,0.398,1.832,0.474C85.358,40.04,91.743,39.676,92.656,38.398z   M25.228,28.665c0.973-2.494,2.676-5.171,8.639-5.962c4.014-0.532,11.826-1.307,16.132-1.307c4.307,0,12.116,0.776,16.134,1.307  c5.96,0.791,7.665,3.468,8.639,5.962c0.973,2.494,4.865,10.707,4.865,10.707c-6.415,1.461-25.192,1.8-29.639,1.858  c-4.447-0.057-23.011-0.275-29.638-1.858C20.361,39.371,24.254,31.159,25.228,28.665z M81.078,50.432l-0.26,3.19  c-0.298,0.067-0.602,0.134-0.905,0.199c-1.156,0.248-2.232,0.453-3.197,0.623l0.231-2.84L81.078,50.432z M76.286,51.792l-0.29,2.772  c-2.404,0.4-3.964,0.554-3.964,0.554l0.798-2.347L76.286,51.792z M27.965,55.118c0,0-1.56-0.154-3.962-0.554l-0.29-2.772  l3.456,0.979L27.965,55.118z M23.054,51.604l0.231,2.84c-0.966-0.17-2.041-0.375-3.197-0.623c-0.303-0.065-0.607-0.132-0.908-0.199  l-0.257-3.19L23.054,51.604z M18.187,50.224l0.325,3.249c-2.719-0.615-5.062-1.21-5.062-1.21l-0.14-3.42L18.187,50.224z M50,66.493  c-1.874,0-7.081,0.013-14.917-1.205c0,0-12.652-15.845,0-15.526c6.092,0.153,11.96,0.419,14.917,0.419  c2.958,0,8.826-0.266,14.918-0.419c12.652-0.318,0,15.526,0,15.526C57.079,66.506,51.876,66.493,50,66.493z M86.69,48.842  l-0.14,3.42c0,0-2.343,0.595-5.061,1.21l0.325-3.249L86.69,48.842z"/></svg>